<?xml version="1.0" encoding="utf-8" ?><svg xmlns="http://www.w3.org/2000/svg" xmlns:xlink="http://www.w3.org/1999/xlink" width="1415" height="1415" viewBox="0 0 1415 1415"><defs><linearGradient id="gradient_0" gradientUnits="userSpaceOnUse" x1="591.19458" y1="141.04939" x2="451.3858" y2="905.20966"><stop offset="0" stop-color="#042E3E"/><stop offset="1" stop-color="#18365B"/></linearGradient></defs><path fill="url(#gradient_0)" transform="matrix(1.38184 0 0 1.38184 0.00012207 0)" d="M187.248 749.788C177.478 737.485 170.286 723.339 166.101 708.196C157.944 678.825 160.047 642.692 160.05 612.139L160.059 505.227L160.047 422.212C160.051 401.645 159.337 381.772 161.824 361.3C163.904 344.048 169.35 327.373 177.854 312.22C197.066 278.294 225.633 264.013 257.965 245.094L313.931 212.098L398.659 162.766C418.092 151.35 435.74 139.895 456.103 129.659C466.679 124.239 477.771 119.893 489.214 116.687C534.132 104.279 563.872 117.283 602.06 139.154C619.77 149.297 637.861 160.379 655.499 170.397C669.851 179.073 684.732 187.303 699.24 195.813C712.84 203.79 726.49 212.523 740.152 220.271C759.187 231.145 778.104 242.223 796.9 253.504C804.492 258.027 822.537 268.382 828.898 273.902C853.903 289.544 873.786 324.287 879.628 352.723C884.688 377.357 883.455 410.787 883.472 436.576L883.508 545.475L883.514 626.681C883.501 669.907 884.954 703.981 860.75 742.54C853.461 754.245 844.202 764.601 833.381 773.149C815.398 787.287 794.073 798.971 774.177 810.409L709.642 847.481C684.102 861.991 658.741 876.823 633.544 891.918C630.923 893.489 628.141 895.177 625.45 896.598L621.986 898.535C573.121 928.087 529.428 952.912 471.444 926.814C464.652 923.989 454.434 918.118 448.029 914.457C436.091 907.678 424.262 900.708 412.548 893.55L343.664 853.275C341.321 852.262 335.263 848.501 332.816 847.032C326.251 843.023 319.633 839.103 312.962 835.273C293.307 824.134 273.788 812.759 254.407 801.149C228.172 785.622 206.521 774.4 187.248 749.788ZM614.01 877.13C628.209 867.863 647.996 857.261 663.041 848.578C693.521 830.619 724.171 812.95 754.986 795.572C776.236 783.375 799.671 771.308 819.119 756.461C839.425 740.959 854.222 714.33 859.167 689.369C863.353 668.241 862.245 643.622 862.232 621.743L862.182 537.875L862.138 431.575C861.944 394.553 865.03 350.751 844.029 318.807C826.785 292.576 793.872 276.29 767.496 261.001L706.57 225.011L623.973 176.125C600.406 162.178 577.62 146.944 551.653 137.888C504.236 121.351 466.739 147.593 427.828 170.371L357.469 211.585L290.194 250.916C271.711 261.544 253.692 272.269 235.574 283.31C175.01 320.217 180.584 369.877 180.649 432.297L180.604 542.327L180.632 630.329C180.633 668.028 177.402 698.092 199.805 731.53C206.918 742.112 215.87 751.334 226.237 758.758C237.78 767.161 251.052 774.309 263.512 781.349L307.933 806.829L396.669 858.447C414.54 868.964 433.632 880.957 451.589 890.944C452.6 891.291 461.714 896.437 463.047 897.193C473.57 903.163 482.739 908.599 494.564 911.859C542.117 924.971 575.64 898.189 614.01 877.13Z"/><path fill="#38486A" transform="matrix(1.38184 0 0 1.38184 0.00012207 0)" d="M324.998 259.171C330.683 255.157 343.088 248.401 349.364 244.74L394.818 218.261C411.486 208.693 428.085 199.006 444.615 189.201C458.608 181.047 473.123 172.045 488.176 166.083C532.017 148.722 569.128 171.368 605.7 193.64C625.656 204.373 647.586 217.958 667.091 229.594L727.563 265.206C752.014 279.834 779.189 293.494 801.287 311.345C842.848 344.919 836.672 397.466 836.671 445.174L836.742 546.348L836.87 622.246C836.953 653.354 839.443 683.729 824.017 712.272C809.641 738.871 786.607 750.082 761.522 764.639L704.668 797.482L618.863 847.476C598.724 859.183 570.327 877.35 548.887 883.889C520.459 892.56 490.089 886.551 464.819 871.814C449.269 862.745 433.639 853.384 418.001 844.227L330.441 793.406C312.344 782.973 294.309 772.435 276.336 761.793C264.344 754.716 246.588 744.802 236.493 735.61C224.168 724.202 215.273 709.58 210.811 693.39C208.317 684.267 206.825 674.901 206.359 665.456C205.296 647.173 206.067 625.042 206.091 606.499L206.086 503.508L206.112 425.342C206.1 409.658 205.466 389.369 207.131 374.18C208.502 361.306 212.427 348.836 218.676 337.498C231.172 315.316 245.943 305.819 266.81 293.411L299.519 274.013C303.692 271.542 321.473 260.632 324.998 259.171Z"/><defs><linearGradient id="gradient_1" gradientUnits="userSpaceOnUse" x1="463.10324" y1="408.50049" x2="446.55124" y2="174.77663"><stop offset="0" stop-color="#4F567D"/><stop offset="1" stop-color="#72809B"/></linearGradient></defs><path fill="url(#gradient_1)" transform="matrix(1.38184 0 0 1.38184 0.00012207 0)" d="M324.998 259.171C330.683 255.157 343.088 248.401 349.364 244.74L394.818 218.261C411.486 208.693 428.085 199.006 444.615 189.201C458.608 181.047 473.123 172.045 488.176 166.083C532.017 148.722 569.128 171.368 605.7 193.64C605.225 195.214 604.978 195.786 604.924 197.466L694.561 250.247C692.646 250.809 692.175 250.867 690.176 250.871L689.432 251.733L689.819 253.346C694.617 256.55 700.432 259.339 704.859 262.646C703.859 262.568 702.487 262.222 701.998 262.802C698.304 267.177 692.905 276.106 690.243 281.009L689.239 279.941L688.529 279.708C686.065 278.888 683.432 277.828 681.131 276.585C673.301 272.354 663.799 271.554 655.589 268.467C645.056 264.506 634.252 262.297 623.596 259.01C617.326 257.076 610.676 252.244 604.489 249.846C598.342 246.931 591.503 245.616 585.371 243.179C572.359 237.91 561.942 233.595 547.699 232.642C528.653 231.368 510.319 231.202 491.188 232.971C477.176 234.267 462.135 238.517 448.076 240.581C444.149 241.158 437.522 245.186 433.415 246.092C415.056 251.572 398.324 259.923 380.993 267.887C370.532 273.091 358.792 276.688 348.289 281.45C325.787 291.652 303.44 302.456 281.096 313.021C266.956 319.706 258.372 323.311 248.212 335.591C232.566 354.501 222.569 377.797 221.877 402.498C221.829 404.386 218.781 409.242 218.557 411.452C217.694 416.618 219.216 424.4 215.406 428.545C214.045 416.228 215.116 380.414 216.795 368.702C222.369 328.914 256.699 308.75 288.755 291.208C294.949 287.819 305.996 282.05 311.491 277.813C308.871 277.43 306.401 281.432 302.846 278.992C304.337 275.674 308.218 275.911 310.08 272.689C312.114 270.603 329.249 261.293 332.389 259.5C332.787 258.466 332.723 259.026 332.471 257.811C330.945 257.237 326.919 258.648 324.998 259.171Z"/><defs><linearGradient id="gradient_2" gradientUnits="userSpaceOnUse" x1="547.57904" y1="289.11993" x2="514.00653" y2="163.36041"><stop offset="0" stop-color="#A3ACCA"/><stop offset="1" stop-color="#D9E1E6"/></linearGradient></defs><path fill="url(#gradient_2)" transform="matrix(1.38184 0 0 1.38184 0.00012207 0)" d="M324.998 259.171C330.683 255.157 343.088 248.401 349.364 244.74L394.818 218.261C411.486 208.693 428.085 199.006 444.615 189.201C458.608 181.047 473.123 172.045 488.176 166.083C532.017 148.722 569.128 171.368 605.7 193.64C605.225 195.214 604.978 195.786 604.924 197.466L694.561 250.247C692.646 250.809 692.175 250.867 690.176 250.871L689.432 251.733L689.819 253.346C675.155 245.527 660.573 236.351 646.305 227.905L597.403 199.557C580.448 189.784 561.507 178.159 542.946 172.241C529.007 167.797 516.159 168.343 502.084 171.763C481.852 176.679 468.308 186.487 450.533 196.42C426.281 209.972 402.024 225.719 377.62 238.892L377.02 235.312L376.479 234.977C375.17 235.741 374.596 236.07 373.175 236.691L372.213 236.295C359.019 242.964 346.028 252.578 332.389 259.5C332.787 258.466 332.723 259.026 332.471 257.811C330.945 257.237 326.919 258.648 324.998 259.171Z"/><path fill="#38486A" transform="matrix(1.38184 0 0 1.38184 0.00012207 0)" d="M324.998 259.171C330.683 255.157 343.088 248.401 349.364 244.74L394.818 218.261C411.486 208.693 428.085 199.006 444.615 189.201C458.608 181.047 473.123 172.045 488.176 166.083C532.017 148.722 569.128 171.368 605.7 193.64C605.225 195.214 604.978 195.786 604.924 197.466C581.173 184.955 559.902 168.486 532.39 164.519C497.396 159.474 470.286 178.788 441.843 195.482L372.213 236.295C359.019 242.964 346.028 252.578 332.389 259.5C332.787 258.466 332.723 259.026 332.471 257.811C330.945 257.237 326.919 258.648 324.998 259.171Z"/><path fill="#BBC2DD" transform="matrix(1.38184 0 0 1.38184 0.00012207 0)" d="M372.213 236.295L373.175 236.691C374.596 236.07 375.17 235.741 376.479 234.977L377.02 235.312L377.62 238.892C368.816 245.485 353.139 253.313 343.108 259.185L322.039 271.683C319.345 273.281 314.056 276.614 311.491 277.813C308.871 277.43 306.401 281.432 302.846 278.992C304.337 275.674 308.218 275.911 310.08 272.689C312.114 270.603 329.249 261.293 332.389 259.5C346.028 252.578 359.019 242.964 372.213 236.295Z"/><path fill="#132041" transform="matrix(1.38184 0 0 1.38184 0.00012207 0)" d="M605.7 193.64C625.656 204.373 647.586 217.958 667.091 229.594L727.563 265.206C752.014 279.834 779.189 293.494 801.287 311.345C842.848 344.919 836.672 397.466 836.671 445.174L836.742 546.348L836.87 622.246C836.953 653.354 839.443 683.729 824.017 712.272C809.641 738.871 786.607 750.082 761.522 764.639L704.668 797.482L618.863 847.476C598.724 859.183 570.327 877.35 548.887 883.889C520.459 892.56 490.089 886.551 464.819 871.814C449.269 862.745 433.639 853.384 418.001 844.227L330.441 793.406C312.344 782.973 294.309 772.435 276.336 761.793C264.344 754.716 246.588 744.802 236.493 735.61C224.168 724.202 215.273 709.58 210.811 693.39C208.317 684.267 206.825 674.901 206.359 665.456C205.296 647.173 206.067 625.042 206.091 606.499L206.086 503.508L206.112 425.342C206.1 409.658 205.466 389.369 207.131 374.18C208.502 361.306 212.427 348.836 218.676 337.498C231.172 315.316 245.943 305.819 266.81 293.411L299.519 274.013C303.692 271.542 321.473 260.632 324.998 259.171C326.919 258.648 330.945 257.237 332.471 257.811C332.723 259.026 332.787 258.466 332.389 259.5C329.249 261.293 312.114 270.603 310.08 272.689C308.218 275.911 304.337 275.674 302.846 278.992C306.401 281.432 308.871 277.43 311.491 277.813C305.996 282.05 294.949 287.819 288.755 291.208C256.699 308.75 222.369 328.914 216.795 368.702C215.116 380.414 214.045 416.228 215.406 428.545L215.412 594.069L215.348 632.283C215.073 664.064 213.866 697.504 237.024 722.666C251.123 737.986 272.51 748.509 290.497 758.952L387.529 815.178C395.132 819.623 402.705 824.115 410.325 828.535C414.483 830.947 422.866 835.228 426.47 837.8C428.751 838.88 446.368 848.693 447.637 850.009C464.384 859.163 476.082 867.623 494.335 874.261C497.973 875.302 500.356 875.945 504.064 876.577C542.649 883.322 565.688 866.568 596.333 848.472L628.489 829.911C635.838 825.626 643.465 820.774 650.884 816.753C652.162 815.609 658.389 812.22 660.229 811.146L681.917 798.647L750.191 759.379C764.129 751.408 779.224 743.717 792.296 734.538C809.605 722.383 823.394 699.291 826.202 678.39C828.927 658.11 827.998 636.463 827.978 615.942L827.72 513.697L827.537 427.913C827.485 400.776 830.02 375.876 818.732 350.566C808.528 327.686 798.444 319.105 777.871 305.992C769.471 300.623 760.949 295.445 752.314 290.462C748.018 287.954 732.506 279.667 729.435 276.803C723.196 273.919 711.183 266.368 704.859 262.646C700.432 259.339 694.617 256.55 689.819 253.346L689.432 251.733L690.176 250.871C692.175 250.867 692.646 250.809 694.561 250.247L604.924 197.466C604.978 195.786 605.225 195.214 605.7 193.64Z"/><defs><linearGradient id="gradient_3" gradientUnits="userSpaceOnUse" x1="193.9664" y1="596.65192" x2="367.05008" y2="558.38342"><stop offset="0" stop-color="#8B78CA"/><stop offset="1" stop-color="#B3B8DC"/></linearGradient></defs><path fill="url(#gradient_3)" transform="matrix(1.38184 0 0 1.38184 0.00012207 0)" d="M422.497 842.302C386.699 822.296 349.845 799.974 314.281 779.311C300.045 771.085 285.862 762.765 271.735 754.352C262.483 748.863 250.731 742.241 242.379 735.596C233.972 728.788 227.005 720.374 221.886 710.844C206.879 682.422 209.439 647.183 209.587 616.028L209.65 542.371L209.765 441.642C209.79 413.343 207.387 381.642 215.216 354.318C224.131 323.201 251.775 306.439 278.091 291.441C288.588 285.458 299.251 278.261 310.08 272.689C308.218 275.911 304.337 275.674 302.846 278.992C306.401 281.432 308.871 277.43 311.491 277.813C305.996 282.05 294.949 287.819 288.755 291.208C256.699 308.75 222.369 328.914 216.795 368.702C215.116 380.414 214.045 416.228 215.406 428.545L215.412 594.069L215.348 632.283C215.073 664.064 213.866 697.504 237.024 722.666C251.123 737.986 272.51 748.509 290.497 758.952L387.529 815.178C395.132 819.623 402.705 824.115 410.325 828.535C414.483 830.947 422.866 835.228 426.47 837.8C423.626 836.981 426.01 839.318 423.691 837.378L423.596 837.394C423.667 838.316 423.726 838.132 424.2 839.035C423.21 842.388 422.988 838.896 422.497 842.302Z"/><defs><linearGradient id="gradient_4" gradientUnits="userSpaceOnUse" x1="851.58832" y1="584.62897" x2="670.89868" y2="544.2619"><stop offset="0" stop-color="#60878C"/><stop offset="1" stop-color="#93ABBA"/></linearGradient></defs><path fill="url(#gradient_4)" transform="matrix(1.38184 0 0 1.38184 0.00012207 0)" d="M726.486 268.941C736.574 274.339 746.428 281.043 756.288 286.446C787.383 303.486 819.26 324.023 828.687 360.772C835.172 386.051 833.023 418.489 833.023 445.051L833.016 551.185L833.017 626.841C833.024 657.368 835.831 683.689 820.166 711.328C807.16 734.276 788.51 744.186 766.824 756.759L730.521 777.744C703.919 793.091 675.657 810.658 649.169 825.243C646.855 824.761 646.783 825.133 645.51 823.679C646.285 820.432 650.224 819.479 650.884 816.753C652.162 815.609 658.389 812.22 660.229 811.146L681.917 798.647L750.191 759.379C764.129 751.408 779.224 743.717 792.296 734.538C809.605 722.383 823.394 699.291 826.202 678.39C828.927 658.11 827.998 636.463 827.978 615.942L827.72 513.697L827.537 427.913C827.485 400.776 830.02 375.876 818.732 350.566C808.528 327.686 798.444 319.105 777.871 305.992C769.471 300.623 760.949 295.445 752.314 290.462C748.018 287.954 732.506 279.667 729.435 276.803L731.481 276.888L732.259 275.724C731.623 272.938 728.773 271.286 726.495 269.789L726.486 268.941Z"/><defs><linearGradient id="gradient_5" gradientUnits="userSpaceOnUse" x1="551.80438" y1="806.47906" x2="542.4267" y2="886.00085"><stop offset="0" stop-color="#A8B5CB"/><stop offset="1" stop-color="#CCD2E7"/></linearGradient></defs><path fill="url(#gradient_5)" transform="matrix(1.38184 0 0 1.38184 0.00012207 0)" d="M650.884 816.753C650.224 819.479 646.285 820.432 645.51 823.679C646.783 825.133 646.855 824.761 649.169 825.243C635.264 833.621 614.968 843.821 602.134 852.232C541.163 892.191 507.393 894.848 446.165 856.166C448.116 852.832 446.465 852.34 447.637 850.009C464.384 859.163 476.082 867.623 494.335 874.261C497.973 875.302 500.356 875.945 504.064 876.577C542.649 883.322 565.688 866.568 596.333 848.472L628.489 829.911C635.838 825.626 643.465 820.774 650.884 816.753Z"/><path fill="#9AB0BF" transform="matrix(1.38184 0 0 1.38184 0.00012207 0)" d="M694.561 250.247C702.366 254.319 719.035 263.821 726.486 268.941L726.495 269.789C728.773 271.286 731.623 272.938 732.259 275.724L731.481 276.888L729.435 276.803C723.196 273.919 711.183 266.368 704.859 262.646C700.432 259.339 694.617 256.55 689.819 253.346L689.432 251.733L690.176 250.871C692.175 250.867 692.646 250.809 694.561 250.247Z"/><path fill="#BBC2DD" transform="matrix(1.38184 0 0 1.38184 0.00012207 0)" d="M422.497 842.302C422.988 838.896 423.21 842.388 424.2 839.035C423.726 838.132 423.667 838.316 423.596 837.394L423.691 837.378C426.01 839.318 423.626 836.981 426.47 837.8C428.751 838.88 446.368 848.693 447.637 850.009C446.465 852.34 448.116 852.832 446.165 856.166C440.342 852.189 429.073 846.195 422.497 842.302Z"/><path fill="#43429A" transform="matrix(1.38184 0 0 1.38184 0.00012207 0)" d="M689.239 279.941L690.243 281.009C688.441 284.231 680.994 295.587 678.658 298.392L678.281 298.398C681.254 292.15 687.123 285.586 689.239 279.941Z"/><path fill="#3567BD" transform="matrix(1.38184 0 0 1.38184 0.00012207 0)" d="M494.335 874.261C497.222 873.55 500.123 872.6 503 873.212C504.537 874.437 504.611 874.498 504.064 876.577C500.356 875.945 497.973 875.302 494.335 874.261Z"/><path fill="#84FBFC" transform="matrix(1.38184 0 0 1.38184 0.00012207 0)" d="M517.191 273.716C523.61 271.016 525.737 271.966 529.566 277.499L530.16 284.819C530.432 288.807 530.732 292.792 531.061 296.776C536.855 301.583 534.589 303.995 537.724 310.161C547.334 329.063 550.932 349.535 557.743 369.375C559.812 375.399 564.615 381.286 567.15 387.185C568.485 390.122 570.15 397.284 572.562 398.544C578.477 395.602 583.839 391.551 589.627 388.342C595.454 385.112 601.562 382.382 607.479 379.319C623.071 371.246 665.901 347.865 682.479 353.17C685.026 353.985 687.076 355.624 688.227 358.059C693.753 369.75 685.279 392.242 680.805 403.715C674.042 421.054 664.003 437.016 655.252 453.379C650.671 461.944 646.854 471.431 641.426 479.473C640.51 480.829 639.501 481.909 638.137 482.804C653.289 491.014 664.338 495.356 680.425 500.913C682.483 501.986 684.533 503.073 686.575 504.176C685.689 507.16 684.978 511.429 683.439 513.878C681.723 514.937 681.866 514.541 679.411 514.444C687.843 517.094 697.945 519.398 706.718 520.355C698.298 522.582 689.803 524.042 681.4 526.104C683.096 531.433 682.432 534.613 681.84 540.023C679.18 540.916 678.174 540.945 676.327 542.998C661.543 548.552 651.205 552.723 637.579 560.716C641.277 564.495 647.445 576.159 650.145 581.101C662.619 603.931 680.283 635.399 687.759 660.349C689.127 664.817 689.765 669.476 689.65 674.147C689.581 678.226 688.997 683.701 685.837 686.629C682.626 689.605 677.514 689.869 673.363 689.595C649.426 688.017 582.381 651.208 561.544 636.698C546.857 665.674 539.81 685.15 534.513 717.487C533.467 724.486 532.58 731.507 531.853 738.546C531.099 746.179 530.834 761.365 527.704 768C526.625 769.186 526.041 769.929 524.285 769.996C522.72 770.057 521.157 769.826 519.677 769.314C519.031 768.993 516.132 767.473 516.022 767.148C513.791 760.53 513.341 744.24 512.543 737.534C507.806 697.735 501.522 672.108 483.251 636.87C479.76 638.106 477.335 640.995 474.199 642.865C464.62 648.578 454.609 653.817 444.929 659.409C430.97 667.472 416.115 674.38 401.441 681.044C391.824 685.412 370.434 694.009 359.799 689.596C357.28 688.551 355.5 686.589 354.471 684.083C344.366 659.477 394.919 584.731 405.393 559.378L407.016 560.135C407.251 560.04 407.486 559.945 407.722 559.85C413.595 560.027 413.211 556.405 414.836 550.097C412.677 548.903 408.285 546.739 407.178 544.791C412.723 547.291 419.918 551.64 425.329 554.757C425.024 553.247 422.687 551.861 421.37 550.871C423.113 545.478 430.029 533.094 432.974 527.527C432.089 526.396 431.147 526.222 429.708 525.563L429.364 525.479C426.083 524.714 423.188 525.292 420.652 524.196C419.792 522.683 420.056 523.197 420.667 520.907C419.886 519.809 420.327 520.307 419.349 519.411C420.767 518.748 440.781 517.229 445.012 516.258L445.787 516.075C439.767 515.094 431.487 517.441 424.993 517.453C425.029 517.421 425.065 517.39 425.101 517.359C425.299 517.095 425.496 516.832 425.693 516.568C423.427 510.017 415.272 501.215 414.873 494.506C421.678 490.125 437.41 480.492 442.707 475.013C437.107 475.546 441.136 470.87 434.482 465.585C428.872 469.309 422.75 473.539 416.959 476.859C413.122 479.515 406.912 483.023 402.581 484.891L404.661 482.506C405.113 480.118 400.191 473.343 398.936 470.876C385.812 445.045 371.296 420.154 359.756 393.499C355.681 384.087 348.289 365.157 355.538 355.457C357.607 352.688 361.585 351.646 364.938 351.451C369.112 351.209 373.838 351.688 377.942 352.692C394.463 357.88 436.555 376.128 448.498 386.206C454.063 388.826 466.988 396.917 472.191 400.417C476.644 396.463 478.306 392.906 481.386 387.969C492.778 369.704 493.423 349.004 496.804 328.475C497.417 324.757 500.915 320.732 502.105 317.094C504.259 311.159 504.81 304.163 506.886 298.285C509.479 290.942 513.266 284.11 514.869 276.253C515.088 275.183 516.3 274.278 517.191 273.716Z"/><path fill="#45D1FB" transform="matrix(1.38184 0 0 1.38184 0.00012207 0)" d="M517.191 273.716C523.61 271.016 525.737 271.966 529.566 277.499L530.16 284.819C530.432 288.807 530.732 292.792 531.061 296.776C536.855 301.583 534.589 303.995 537.724 310.161C547.334 329.063 550.932 349.535 557.743 369.375C559.812 375.399 564.615 381.286 567.15 387.185C568.485 390.122 570.15 397.284 572.562 398.544C578.477 395.602 583.839 391.551 589.627 388.342C595.454 385.112 601.562 382.382 607.479 379.319C623.071 371.246 665.901 347.865 682.479 353.17C685.026 353.985 687.076 355.624 688.227 358.059C693.753 369.75 685.279 392.242 680.805 403.715C674.042 421.054 664.003 437.016 655.252 453.379C650.671 461.944 646.854 471.431 641.426 479.473C640.51 480.829 639.501 481.909 638.137 482.804C653.289 491.014 664.338 495.356 680.425 500.913C682.483 501.986 684.533 503.073 686.575 504.176C685.689 507.16 684.978 511.429 683.439 513.878C681.723 514.937 681.866 514.541 679.411 514.444C660.303 510.114 644.892 501.986 627.546 493.616C627.07 492.699 621.808 489.701 620.439 489.213C617.027 486.303 605.505 478.215 601.602 475.501C600.114 472.827 598.158 472.074 595.444 473.145C593.63 472.286 591.275 473.27 589.223 473.248C588.491 473.241 586.704 473.124 586.235 472.695C582.301 469.088 578.231 464.531 574.325 460.96C572.817 460.648 572.657 460.669 571.295 460.007C570.232 458.211 569.968 454.88 569.64 452.686C569.545 451.66 569.911 448.508 569.947 447.041C569.279 445.611 569.319 445.718 567.967 444.879C566.202 442.022 560.901 435.024 558.744 432.435C558.82 432.786 543.84 405.752 542.754 403.852C538.565 393.971 535.019 385.101 531.724 374.886C527.864 362.317 524.029 345.878 522.618 332.899C520.012 340.254 517.592 355.028 515.651 363.243C507.764 396.612 493.732 420.575 472.141 446.741C474.03 453.23 475.134 458.895 471.646 465.326C469.379 469.572 465.434 472.671 460.771 473.867C455.392 475.224 451.252 473.879 446.424 471.687C445.183 472.829 443.999 473.929 442.707 475.013C437.107 475.546 441.136 470.87 434.482 465.585C428.872 469.309 422.75 473.539 416.959 476.859C413.122 479.515 406.912 483.023 402.581 484.891L404.661 482.506C405.113 480.118 400.191 473.343 398.936 470.876C385.812 445.045 371.296 420.154 359.756 393.499C355.681 384.087 348.289 365.157 355.538 355.457C357.607 352.688 361.585 351.646 364.938 351.451C369.112 351.209 373.838 351.688 377.942 352.692C394.463 357.88 436.555 376.128 448.498 386.206C454.063 388.826 466.988 396.917 472.191 400.417C476.644 396.463 478.306 392.906 481.386 387.969C492.778 369.704 493.423 349.004 496.804 328.475C497.417 324.757 500.915 320.732 502.105 317.094C504.259 311.159 504.81 304.163 506.886 298.285C509.479 290.942 513.266 284.11 514.869 276.253C515.088 275.183 516.3 274.278 517.191 273.716Z"/><path fill="#38486A" transform="matrix(1.38184 0 0 1.38184 0.00012207 0)" d="M531.061 296.776C536.855 301.583 534.589 303.995 537.724 310.161C547.334 329.063 550.932 349.535 557.743 369.375C559.812 375.399 564.615 381.286 567.15 387.185C568.485 390.122 570.15 397.284 572.562 398.544C578.477 395.602 583.839 391.551 589.627 388.342C595.454 385.112 601.562 382.382 607.479 379.319C623.071 371.246 665.901 347.865 682.479 353.17C685.026 353.985 687.076 355.624 688.227 358.059C693.753 369.75 685.279 392.242 680.805 403.715C674.042 421.054 664.003 437.016 655.252 453.379C650.671 461.944 646.854 471.431 641.426 479.473C640.51 480.829 639.501 481.909 638.137 482.804C635.197 481.328 632.291 479.782 629.424 478.169C628.421 477.612 627.777 477.128 626.846 476.474C623.682 474.603 620.983 472.696 617.967 470.591C613.876 467.851 610.784 465.28 606.996 462.174C608.066 453.704 608.07 452.519 604.728 444.642C613.886 434.323 623.351 422.039 632.051 411.158C623.089 417.204 607.311 431.851 598.944 439.401C591.408 436.096 589.167 435.707 581.649 438.094C575.013 429.763 570.377 423.376 565.133 414.061C546.884 389.459 531.976 327.5 531.061 296.776Z"/><defs><linearGradient id="gradient_6" gradientUnits="userSpaceOnUse" x1="677.05237" y1="416.27673" x2="512.00732" y2="369.41846"><stop offset="0" stop-color="#337578"/><stop offset="1" stop-color="#3D62A4"/></linearGradient></defs><path fill="url(#gradient_6)" transform="matrix(1.38184 0 0 1.38184 0.00012207 0)" d="M531.061 296.776C536.855 301.583 534.589 303.995 537.724 310.161C547.334 329.063 550.932 349.535 557.743 369.375C559.812 375.399 564.615 381.286 567.15 387.185C568.485 390.122 570.15 397.284 572.562 398.544C578.477 395.602 583.839 391.551 589.627 388.342C595.454 385.112 601.562 382.382 607.479 379.319C623.071 371.246 665.901 347.865 682.479 353.17C685.026 353.985 687.076 355.624 688.227 358.059C693.753 369.75 685.279 392.242 680.805 403.715C674.042 421.054 664.003 437.016 655.252 453.379C650.671 461.944 646.854 471.431 641.426 479.473C640.51 480.829 639.501 481.909 638.137 482.804C635.197 481.328 632.291 479.782 629.424 478.169C632.17 472.019 636.363 465.998 639.704 460.125C649.167 443.49 675.588 397.916 672.473 379.851C671.951 376.821 670.589 373.786 667.973 372.018C654.849 363.151 601.011 394.25 588.947 401.228C581.799 405.364 573.855 412.392 565.787 413.943C565.569 413.985 565.351 414.022 565.133 414.061C546.884 389.459 531.976 327.5 531.061 296.776Z"/><path fill="#132041" transform="matrix(1.38184 0 0 1.38184 0.00012207 0)" d="M617.967 470.591C621.004 470.723 624.265 473.33 626.449 475.297L626.846 476.474C623.682 474.603 620.983 472.696 617.967 470.591Z"/><path fill="#38486A" transform="matrix(1.38184 0 0 1.38184 0.00012207 0)" d="M402.581 484.891L404.661 482.506C405.113 480.118 400.191 473.343 398.936 470.876C385.812 445.045 371.296 420.154 359.756 393.499C355.681 384.087 348.289 365.157 355.538 355.457C357.607 352.688 361.585 351.646 364.938 351.451C369.112 351.209 373.838 351.688 377.942 352.692C394.463 357.88 436.555 376.128 448.498 386.206C448.823 386.926 449.364 388.151 450.012 388.633C459.996 396.063 471.884 401.805 481.55 409.62C479.933 412.34 478.378 415.1 476.49 417.638C473.575 422.203 466.246 434.916 461.747 437.319C460.55 437.347 459.872 437.375 458.687 437.253C454.275 439.531 449.998 438.804 445.085 438.51C441.703 436.284 435.254 429.039 431.942 430.252C431.048 431.763 431.177 432.887 431.096 434.65C434.15 438.711 436.763 441.933 440.303 445.612C439.366 447.611 438.515 449.464 437.935 451.621C436.424 457.24 439.777 462.071 434.482 465.585C428.872 469.309 422.75 473.539 416.959 476.859C413.122 479.515 406.912 483.023 402.581 484.891Z"/><path fill="#43429A" transform="matrix(1.38184 0 0 1.38184 0.00012207 0)" d="M402.581 484.891L404.661 482.506C405.113 480.118 400.191 473.343 398.936 470.876C385.812 445.045 371.296 420.154 359.756 393.499C355.681 384.087 348.289 365.157 355.538 355.457C357.607 352.688 361.585 351.646 364.938 351.451C369.112 351.209 373.838 351.688 377.942 352.692C394.463 357.88 436.555 376.128 448.498 386.206C448.823 386.926 449.364 388.151 450.012 388.633C459.996 396.063 471.884 401.805 481.55 409.62C479.933 412.34 478.378 415.1 476.49 417.638C474.621 415.14 470.673 413.047 465.897 409.344C454.28 400.34 377.527 351.098 370.203 377.774C366.848 389.997 393.124 438.03 399.902 449.923C402.463 455.099 414.001 475.12 416.959 476.859C413.122 479.515 406.912 483.023 402.581 484.891Z"/><path fill="#43AEFE" transform="matrix(1.38184 0 0 1.38184 0.00012207 0)" d="M409.047 409.18C420.45 418.12 435.545 430.267 447.702 438.107C450.743 437.49 455.685 436.59 458.687 437.253C454.275 439.531 449.998 438.804 445.085 438.51C441.703 436.284 435.254 429.039 431.942 430.252C431.048 431.763 431.177 432.887 431.096 434.65C423.877 426.503 415.741 417.666 409.047 409.18Z"/><path fill="#3567BD" transform="matrix(1.38184 0 0 1.38184 0.00012207 0)" d="M472.191 400.417C476.644 396.463 478.306 392.906 481.386 387.969C492.778 369.704 493.423 349.004 496.804 328.475C497.417 324.757 500.915 320.732 502.105 317.094C504.259 311.159 504.81 304.163 506.886 298.285C509.479 290.942 513.266 284.11 514.869 276.253C515.088 275.183 516.3 274.278 517.191 273.716C515.164 280.088 514.423 284.546 514.569 291.299C511.386 328.829 502.715 377.871 481.55 409.62C471.884 401.805 459.996 396.063 450.012 388.633C449.364 388.151 448.823 386.926 448.498 386.206C454.063 388.826 466.988 396.917 472.191 400.417Z"/><path fill="#43AEFE" transform="matrix(1.38184 0 0 1.38184 0.00012207 0)" d="M517.191 273.716C523.61 271.016 525.737 271.966 529.566 277.499L530.16 284.819C525.238 283.398 522.204 285.08 517.079 283.834C516.151 286.277 515.089 288.754 514.569 291.299C514.423 284.546 515.164 280.088 517.191 273.716Z"/><path fill="#38486A" transform="matrix(1.38184 0 0 1.38184 0.00012207 0)" d="M407.178 544.791C412.723 547.291 419.918 551.64 425.329 554.757C429.281 557.801 443.087 567.959 446.792 570.167C453.681 568.442 459.241 567.088 465.777 571.213C474.463 576.694 475.119 586.928 472.886 596.002C481.406 605.914 487.063 614.545 493.441 625.965C496.232 630.963 499.697 638.313 502.629 642.876C504.979 648.499 507.235 653.867 509.314 659.6C509.891 661.656 514.5 676.438 515.318 678.092L518.471 690.761C519.567 695.769 520.269 706.023 522.818 709.061C527.8 715.408 530.467 713.724 534.513 717.487C533.467 724.486 532.58 731.507 531.853 738.546C531.099 746.179 530.834 761.365 527.704 768C526.625 769.186 526.041 769.929 524.285 769.996C522.72 770.057 521.157 769.826 519.677 769.314C519.031 768.993 516.132 767.473 516.022 767.148C513.791 760.53 513.341 744.24 512.543 737.534C507.806 697.735 501.522 672.108 483.251 636.87C479.76 638.106 477.335 640.995 474.199 642.865C464.62 648.578 454.609 653.817 444.929 659.409C430.97 667.472 416.115 674.38 401.441 681.044C391.824 685.412 370.434 694.009 359.799 689.596C357.28 688.551 355.5 686.589 354.471 684.083C344.366 659.477 394.919 584.731 405.393 559.378L407.016 560.135C407.251 560.04 407.486 559.945 407.722 559.85C413.595 560.027 413.211 556.405 414.836 550.097C412.677 548.903 408.285 546.739 407.178 544.791Z"/><path fill="#43AEFE" transform="matrix(1.38184 0 0 1.38184 0.00012207 0)" d="M407.178 544.791C412.723 547.291 419.918 551.64 425.329 554.757C429.281 557.801 443.087 567.959 446.792 570.167C453.681 568.442 459.241 567.088 465.777 571.213C474.463 576.694 475.119 586.928 472.886 596.002C481.406 605.914 487.063 614.545 493.441 625.965C496.232 630.963 499.697 638.313 502.629 642.876C504.979 648.499 507.235 653.867 509.314 659.6C509.891 661.656 514.5 676.438 515.318 678.092L518.471 690.761C519.567 695.769 520.269 706.023 522.818 709.061C527.8 715.408 530.467 713.724 534.513 717.487C533.467 724.486 532.58 731.507 531.853 738.546C531.099 746.179 530.834 761.365 527.704 768C526.625 769.186 526.041 769.929 524.285 769.996C522.72 770.057 521.157 769.826 519.677 769.314C519.031 768.993 516.132 767.473 516.022 767.148C513.791 760.53 513.341 744.24 512.543 737.534C507.806 697.735 501.522 672.108 483.251 636.87C481.358 633.017 479.049 629.275 476.857 625.574C472.361 618.478 468.797 613.025 463.348 606.493C455.267 606.698 453.298 606.481 445.614 603.91C437.303 609.47 423.38 620.212 415.617 626.748L414.661 626.023C423.722 616.237 431.323 607.697 439.745 597.381C436.594 590.37 436.732 588.305 437.62 580.752C430.97 574.708 423.739 570.054 416.091 565.448L407.016 560.135C407.251 560.04 407.486 559.945 407.722 559.85C413.595 560.027 413.211 556.405 414.836 550.097C412.677 548.903 408.285 546.739 407.178 544.791Z"/><path fill="#3A78D1" transform="matrix(1.38184 0 0 1.38184 0.00012207 0)" d="M519.677 769.314C521.658 766.616 522.241 764.677 525.67 765.562C526.306 766.423 526.965 767.227 527.704 768C526.625 769.186 526.041 769.929 524.285 769.996C522.72 770.057 521.157 769.826 519.677 769.314Z"/><path fill="#43429A" transform="matrix(1.38184 0 0 1.38184 0.00012207 0)" d="M405.393 559.378L407.016 560.135L416.091 565.448C407.927 577.373 401.013 591.315 394.071 604.012C392.292 607.265 386.221 618.401 385.223 621.618C385.201 624.294 382.474 629.449 381.079 631.718C367.769 653.361 392.563 656.451 406.025 664.168C406.828 664.628 407.564 665.22 408.535 665.675C410.778 665.012 414.691 663.617 416.376 662.036C419.616 661.35 424.465 658.556 427.368 656.816C435.01 654.615 469.85 631.143 476.857 625.574C479.049 629.275 481.358 633.017 483.251 636.87C479.76 638.106 477.335 640.995 474.199 642.865C464.62 648.578 454.609 653.817 444.929 659.409C430.97 667.472 416.115 674.38 401.441 681.044C391.824 685.412 370.434 694.009 359.799 689.596C357.28 688.551 355.5 686.589 354.471 684.083C344.366 659.477 394.919 584.731 405.393 559.378Z"/><path fill="#1B2E67" transform="matrix(1.38184 0 0 1.38184 0.00012207 0)" d="M385.223 621.618C385.201 624.294 382.474 629.449 381.079 631.718C367.769 653.361 392.563 656.451 406.025 664.168C406.828 664.628 407.564 665.22 408.535 665.675C354.97 687.525 369.481 652.694 385.223 621.618Z"/><path fill="#1B2E67" transform="matrix(1.38184 0 0 1.38184 0.00012207 0)" d="M416.376 662.036C417.593 660.332 425.227 656.878 427.368 656.816C424.465 658.556 419.616 661.35 416.376 662.036Z"/><path fill="#3B9BE9" transform="matrix(1.38184 0 0 1.38184 0.00012207 0)" d="M414.661 626.023L415.617 626.748C414.196 628.103 411.674 629.633 409.967 630.756C411.507 629.072 413.029 627.609 414.661 626.023Z"/><defs><linearGradient id="gradient_7" gradientUnits="userSpaceOnUse" x1="655.20465" y1="649.09973" x2="596.12024" y2="594.96631"><stop offset="0" stop-color="#233140"/><stop offset="1" stop-color="#20608F"/></linearGradient></defs><path fill="url(#gradient_7)" transform="matrix(1.38184 0 0 1.38184 0.00012207 0)" d="M661.499 532.237L681.4 526.104C683.096 531.433 682.432 534.613 681.84 540.023C679.18 540.916 678.174 540.945 676.327 542.998C661.543 548.552 651.205 552.723 637.579 560.716C641.277 564.495 647.445 576.159 650.145 581.101C662.619 603.931 680.283 635.399 687.759 660.349C689.127 664.817 689.765 669.476 689.65 674.147C689.581 678.226 688.997 683.701 685.837 686.629C682.626 689.605 677.514 689.869 673.363 689.595C649.426 688.017 582.381 651.208 561.544 636.698C546.857 665.674 539.81 685.15 534.513 717.487C530.467 713.724 527.8 715.408 522.818 709.061C520.269 706.023 519.567 695.769 518.471 690.761C519.038 691.512 519.712 692.747 520.399 692.891C522.149 692.746 522.706 692.842 524.168 691.843C526.81 688.194 523.604 685.75 527.687 682.66C528.596 680.554 530.093 674.93 530.663 672.584C533.885 661.956 538.053 651.887 542.188 641.602L542.546 640.983C544.672 636.784 546.768 632.57 548.836 628.342C555.963 618.012 560.536 609.125 568.944 598.005C570.889 595.04 568.969 589.37 569.328 585.452C570.696 570.506 580.321 567.354 593.627 568.568C595.119 569.406 595.169 569.401 596.831 569.858C597.472 569.7 620.74 552.889 623.62 550.915C627.593 548.468 631.589 546.06 635.608 543.69C643.743 540.636 651.59 535.849 661.499 532.237Z"/><defs><linearGradient id="gradient_8" gradientUnits="userSpaceOnUse" x1="623.5304" y1="638.87927" x2="565.45453" y2="583.48297"><stop offset="0" stop-color="#29BCDD"/><stop offset="1" stop-color="#66FFFD"/></linearGradient></defs><path fill="url(#gradient_8)" transform="matrix(1.38184 0 0 1.38184 0.00012207 0)" d="M661.499 532.237L681.4 526.104C683.096 531.433 682.432 534.613 681.84 540.023C679.18 540.916 678.174 540.945 676.327 542.998C661.543 548.552 651.205 552.723 637.579 560.716C634.661 562.295 632.108 563.608 629.397 565.535C622.592 569.602 613.648 576.15 607.905 581.761L607.063 582.497C607.192 583.364 607.316 584.146 607.472 585.012C607.884 590.888 607.424 592.685 604.839 598.226C607.369 601.198 633.043 630.823 633.306 631.81C632.007 631.627 631.363 630.942 630.306 630.133C628.122 627.939 626.073 626.358 623.659 624.432C620.956 621.13 601.946 606.958 597.75 603.899C596.559 604.541 595.374 605.191 594.192 605.849C590.515 609.097 572.341 627.901 571.171 631.417C569.808 630.66 567.662 629.823 566.181 629.187C564.951 631.123 562.515 634.768 561.544 636.698C546.857 665.674 539.81 685.15 534.513 717.487C530.467 713.724 527.8 715.408 522.818 709.061C520.269 706.023 519.567 695.769 518.471 690.761C519.038 691.512 519.712 692.747 520.399 692.891C522.149 692.746 522.706 692.842 524.168 691.843C526.81 688.194 523.604 685.75 527.687 682.66C528.596 680.554 530.093 674.93 530.663 672.584C533.885 661.956 538.053 651.887 542.188 641.602L542.546 640.983C544.672 636.784 546.768 632.57 548.836 628.342C555.963 618.012 560.536 609.125 568.944 598.005C570.889 595.04 568.969 589.37 569.328 585.452C570.696 570.506 580.321 567.354 593.627 568.568C595.119 569.406 595.169 569.401 596.831 569.858C597.472 569.7 620.74 552.889 623.62 550.915C627.593 548.468 631.589 546.06 635.608 543.69C643.743 540.636 651.59 535.849 661.499 532.237Z"/><path fill="#1E5E8B" transform="matrix(1.38184 0 0 1.38184 0.00012207 0)" d="M581.537 606.41C587.08 607.02 588.745 607.193 594.192 605.849C590.515 609.097 572.341 627.901 571.171 631.417C569.808 630.66 567.662 629.823 566.181 629.187C570.922 621.361 576.251 613.87 581.537 606.41Z"/><path fill="#38486A" transform="matrix(1.38184 0 0 1.38184 0.00012207 0)" d="M520.399 692.891C522.149 692.746 522.706 692.842 524.168 691.843C526.81 688.194 523.604 685.75 527.687 682.66C525.525 692.016 523.591 699.478 522.818 709.061C520.269 706.023 519.567 695.769 518.471 690.761C519.038 691.512 519.712 692.747 520.399 692.891Z"/><path fill="#2E6E78" transform="matrix(1.38184 0 0 1.38184 0.00012207 0)" d="M629.397 565.535C632.108 563.608 634.661 562.295 637.579 560.716C641.277 564.495 647.445 576.159 650.145 581.101C662.619 603.931 680.283 635.399 687.759 660.349C689.127 664.817 689.765 669.476 689.65 674.147C689.581 678.226 688.997 683.701 685.837 686.629C682.626 689.605 677.514 689.869 673.363 689.595C649.426 688.017 582.381 651.208 561.544 636.698C562.515 634.768 564.951 631.123 566.181 629.187C567.662 629.823 569.808 630.66 571.171 631.417C588 641.024 617.62 658.415 635.074 664.269C634.843 662.838 634.082 661.895 633.677 660.216C636.334 659.217 640.058 658.389 642.381 657.076C647.402 654.238 651.719 650.046 656.249 646.717C660.676 643.463 662.45 642.531 666.575 638.693C658.728 617.887 647.379 598.343 636.235 579.139C633.569 574.544 631.474 570.446 629.397 565.535Z"/><path fill="#092F40" transform="matrix(1.38184 0 0 1.38184 0.00012207 0)" d="M666.575 638.693C670.407 647.345 678.959 666.786 666.52 671.328C658.774 674.156 642.616 668.049 635.816 664.648L635.074 664.269C634.843 662.838 634.082 661.895 633.677 660.216C636.334 659.217 640.058 658.389 642.381 657.076C647.402 654.238 651.719 650.046 656.249 646.717C660.676 643.463 662.45 642.531 666.575 638.693Z"/><path fill="#1E5E8B" transform="matrix(1.38184 0 0 1.38184 0.00012207 0)" d="M607.905 581.761L608.431 582.639C611.72 580.89 615.856 577.813 618.625 575.299C619.086 578.62 613.318 585.693 609.382 586.262L607.472 585.012C607.316 584.146 607.192 583.364 607.063 582.497L607.905 581.761Z"/><path fill="#132041" transform="matrix(1.38184 0 0 1.38184 0.00012207 0)" d="M623.659 624.432C626.073 626.358 628.122 627.939 630.306 630.133L629.977 630.494C627.72 629.832 624.232 626.899 623.659 624.432Z"/><path fill="#3A78D1" transform="matrix(1.38184 0 0 1.38184 0.00012207 0)" d="M472.141 446.741C493.732 420.575 507.764 396.612 515.651 363.243C517.592 355.028 520.012 340.254 522.618 332.899C524.029 345.878 527.864 362.317 531.724 374.886C535.019 385.101 538.565 393.971 542.754 403.852C543.84 405.752 558.82 432.786 558.744 432.435C560.901 435.024 566.202 442.022 567.967 444.879C569.319 445.718 569.279 445.611 569.947 447.041C569.911 448.508 569.545 451.66 569.64 452.686C569.968 454.88 570.232 458.211 571.295 460.007C572.657 460.669 572.817 460.648 574.325 460.96C578.231 464.531 582.301 469.088 586.235 472.695C586.704 473.124 588.491 473.241 589.223 473.248C591.275 473.27 593.63 472.286 595.444 473.145C598.158 472.074 600.114 472.827 601.602 475.501C605.505 478.215 617.027 486.303 620.439 489.213C621.808 489.701 627.07 492.699 627.546 493.616C629.023 495.348 629.378 495.592 631.225 496.984C628.778 502.617 626.552 508.456 623.221 513.614C621.121 516.866 620.594 516.4 617.38 517.991C606.23 518.159 577.307 512.628 566.522 509.313C556.088 507.812 546.936 500.25 540.934 491.966C534.984 483.753 532.916 475.69 531.236 465.914C525.604 438.302 525.215 409.261 522.883 381.223C522.702 379.053 522.759 375.898 521.726 374.023L520.345 406.648C519.031 426.366 517.888 443.322 514.557 462.893C514.196 463.897 513.311 466.937 512.452 467.216C511.575 467.501 508.8 468.128 508.117 468.726C498.143 477.473 488.835 487.103 480.272 497.235C478.828 498.944 477.694 501.641 476.509 503.547C475.51 505.154 475.167 506.734 474.648 508.504L474.465 509.154L473.087 509.924C465.484 512.357 454.103 513.994 445.787 516.075C439.767 515.094 431.487 517.441 424.993 517.453C425.029 517.421 425.065 517.39 425.101 517.359C425.299 517.095 425.496 516.832 425.693 516.568C423.427 510.017 415.272 501.215 414.873 494.506C421.678 490.125 437.41 480.492 442.707 475.013C443.999 473.929 445.183 472.829 446.424 471.687C451.252 473.879 455.392 475.224 460.771 473.867C465.434 472.671 469.379 469.572 471.646 465.326C475.134 458.895 474.03 453.23 472.141 446.741Z"/><defs><linearGradient id="gradient_9" gradientUnits="userSpaceOnUse" x1="560.23169" y1="484.58249" x2="547.03693" y2="497.58832"><stop offset="0" stop-color="#34AAF1"/><stop offset="1" stop-color="#41D7FD"/></linearGradient></defs><path fill="url(#gradient_9)" transform="matrix(1.38184 0 0 1.38184 0.00012207 0)" d="M531.236 465.914C535.211 469.21 539.942 470.476 544.378 473.161C561.658 483.619 573.52 492.889 581.086 511.862C577.762 511.293 568.922 509.186 566.522 509.313C556.088 507.812 546.936 500.25 540.934 491.966C534.984 483.753 532.916 475.69 531.236 465.914Z"/><path fill="#84FBFC" transform="matrix(1.38184 0 0 1.38184 0.00012207 0)" d="M569.64 452.686C569.968 454.88 570.232 458.211 571.295 460.007C572.657 460.669 572.817 460.648 574.325 460.96C578.231 464.531 582.301 469.088 586.235 472.695C586.704 473.124 588.491 473.241 589.223 473.248C591.275 473.27 593.63 472.286 595.444 473.145C592.304 474.344 588.916 474.743 585.583 474.307C580.274 473.667 575.475 470.836 572.346 466.5C568.847 461.631 568.86 458.148 569.64 452.686Z"/><path fill="#43429A" transform="matrix(1.38184 0 0 1.38184 0.00012207 0)" d="M520.345 406.648L519.819 407.106C519.01 405.752 520.432 374.439 521.657 373.223L521.726 374.023L520.345 406.648Z"/><path fill="#1B2E67" transform="matrix(1.38184 0 0 1.38184 0.00012207 0)" d="M542.754 403.852C539.732 402.11 531.342 378.789 531.724 374.886C535.019 385.101 538.565 393.971 542.754 403.852Z"/><path fill="#38486A" transform="matrix(1.38184 0 0 1.38184 0.00012207 0)" d="M601.602 475.501C605.505 478.215 617.027 486.303 620.439 489.213C616.529 488.02 603.942 478.838 601.602 475.501Z"/><path fill="#1B2E67" transform="matrix(1.38184 0 0 1.38184 0.00012207 0)" d="M558.744 432.435C560.901 435.024 566.202 442.022 567.967 444.879C564.948 442.792 559.85 435.958 558.744 432.435Z"/><path fill="#3567BD" transform="matrix(1.38184 0 0 1.38184 0.00012207 0)" d="M429.708 525.563C441.499 525.711 460.87 528.89 472.497 531.879L472.109 532.993C473.481 534.56 474.519 534.656 475.191 535.549C476.83 537.728 478.198 540.493 479.94 542.687C484.468 548.388 490.098 553.862 494.93 559.191C499.778 564.538 508.113 568.683 511.849 573.755C511.861 576.936 512.827 587.217 515.87 588.692C517.041 598.019 519.44 620.482 519.498 629.628C519.728 632.897 521.505 664.753 522.243 665.634L522.436 664.307C523.106 646.652 524.818 626.535 526.008 608.801C537.266 618.498 560.309 589.941 568.944 598.005C560.536 609.125 555.963 618.012 548.836 628.342C546.768 632.57 544.672 636.784 542.546 640.983L542.188 641.602C538.053 651.887 533.885 661.956 530.663 672.584C530.093 674.93 528.596 680.554 527.687 682.66C523.604 685.75 526.81 688.194 524.168 691.843C522.706 692.842 522.149 692.746 520.399 692.891C519.712 692.747 519.038 691.512 518.471 690.761L515.318 678.092C514.5 676.438 509.891 661.656 509.314 659.6C507.235 653.867 504.979 648.499 502.629 642.876C499.697 638.313 496.232 630.963 493.441 625.965C487.063 614.545 481.406 605.914 472.886 596.002C475.119 586.928 474.463 576.694 465.777 571.213C459.241 567.088 453.681 568.442 446.792 570.167C443.087 567.959 429.281 557.801 425.329 554.757C425.024 553.247 422.687 551.861 421.37 550.871C423.113 545.478 430.029 533.094 432.974 527.527C432.089 526.396 431.147 526.222 429.708 525.563Z"/><path fill="#38486A" transform="matrix(1.38184 0 0 1.38184 0.00012207 0)" d="M522.436 664.307L523.217 662.16C524.038 663.698 523.728 670.329 522.629 671.828L521.704 671.273C519.941 667.684 518.47 632.485 518.635 627.123L519.043 627.361C519.06 628.565 519.087 628.523 519.498 629.628C519.728 632.897 521.505 664.753 522.243 665.634L522.436 664.307Z"/><path fill="#38486A" transform="matrix(1.38184 0 0 1.38184 0.00012207 0)" d="M530.663 672.584C529.802 668.258 538.499 643.245 542.188 641.602C538.053 651.887 533.885 661.956 530.663 672.584Z"/><path fill="#38486A" transform="matrix(1.38184 0 0 1.38184 0.00012207 0)" d="M515.318 678.092C517.373 679.394 520.535 690.005 520.399 692.891C519.712 692.747 519.038 691.512 518.471 690.761L515.318 678.092Z"/><path fill="#38486A" transform="matrix(1.38184 0 0 1.38184 0.00012207 0)" d="M502.629 642.876L503.485 642.346C505.549 644.718 509.674 656.209 509.314 659.6C507.235 653.867 504.979 648.499 502.629 642.876Z"/><path fill="#38486A" transform="matrix(1.38184 0 0 1.38184 0.00012207 0)" d="M542.546 640.983C542.142 638.469 546.601 630.341 548.186 628.069L548.836 628.342C546.768 632.57 544.672 636.784 542.546 640.983Z"/><defs><linearGradient id="gradient_10" gradientUnits="userSpaceOnUse" x1="580.94183" y1="582.96997" x2="545.36615" y2="545.99646"><stop offset="0" stop-color="#2461B0"/><stop offset="1" stop-color="#37C5FD"/></linearGradient></defs><path fill="url(#gradient_10)" transform="matrix(1.38184 0 0 1.38184 0.00012207 0)" d="M591.868 528.684C597.28 528.183 603.198 527.367 608.634 526.725C610.668 527.757 609.82 527.048 611.146 529.074C614.835 534.562 620.797 547.486 623.62 550.915C620.74 552.889 597.472 569.7 596.831 569.858C595.169 569.401 595.119 569.406 593.627 568.568C580.321 567.354 570.696 570.506 569.328 585.452C568.969 589.37 570.889 595.04 568.944 598.005C560.309 589.941 537.266 618.498 526.008 608.801C530.238 557.026 536.072 534.842 591.868 528.684Z"/><path fill="#3567BD" transform="matrix(1.38184 0 0 1.38184 0.00012207 0)" d="M591.868 528.684C597.28 528.183 603.198 527.367 608.634 526.725C610.668 527.757 609.82 527.048 611.146 529.074C614.835 534.562 620.797 547.486 623.62 550.915C620.74 552.889 597.472 569.7 596.831 569.858C595.169 569.401 595.119 569.406 593.627 568.568C595.91 568.503 596.665 568.679 598.335 567.518C598.75 563.801 601.187 561.566 602.709 558.271C606.577 549.895 610.827 538.929 609.531 529.639C604.629 526.651 596.397 531.032 591.868 528.684Z"/><defs><linearGradient id="gradient_11" gradientUnits="userSpaceOnUse" x1="702.00854" y1="507.70374" x2="610.73608" y2="526.19739"><stop offset="0" stop-color="#1D4D4F"/><stop offset="1" stop-color="#297AAB"/></linearGradient></defs><path fill="url(#gradient_11)" transform="matrix(1.38184 0 0 1.38184 0.00012207 0)" d="M627.546 493.616C644.892 501.986 660.303 510.114 679.411 514.444C687.843 517.094 697.945 519.398 706.718 520.355C698.298 522.582 689.803 524.042 681.4 526.104L661.499 532.237C651.59 535.849 643.743 540.636 635.608 543.69C631.589 546.06 627.593 548.468 623.62 550.915C620.797 547.486 614.835 534.562 611.146 529.074C609.82 527.048 610.668 527.757 608.634 526.725C612.234 525.942 619.275 525.764 623.203 525.335C636.369 523.899 652.147 524.062 664.957 522.067C649.87 520.471 631.63 520.087 617.38 517.991C620.594 516.4 621.121 516.866 623.221 513.614C626.552 508.456 628.778 502.617 631.225 496.984C629.378 495.592 629.023 495.348 627.546 493.616Z"/><path fill="#092F40" transform="matrix(1.38184 0 0 1.38184 0.00012207 0)" d="M635.608 543.69C636.739 540.781 657.604 531.054 661.499 532.237C651.59 535.849 643.743 540.636 635.608 543.69Z"/><defs><linearGradient id="gradient_12" gradientUnits="userSpaceOnUse" x1="491.39813" y1="485.31924" x2="499.93848" y2="494.11859"><stop offset="0" stop-color="#40ACFA"/><stop offset="1" stop-color="#45CAFE"/></linearGradient></defs><path fill="url(#gradient_12)" transform="matrix(1.38184 0 0 1.38184 0.00012207 0)" d="M514.557 462.893C513.266 477.332 507.161 489.816 496.028 499.371C490.709 503.936 480.157 509.708 473.087 509.924L474.465 509.154L474.648 508.504C475.167 506.734 475.51 505.154 476.509 503.547C477.694 501.641 478.828 498.944 480.272 497.235C488.835 487.103 498.143 477.473 508.117 468.726C508.8 468.128 511.575 467.501 512.452 467.216C513.311 466.937 514.196 463.897 514.557 462.893Z"/><path fill="#43AEFE" transform="matrix(1.38184 0 0 1.38184 0.00012207 0)" d="M472.497 531.879C488.837 535.707 506.48 546.57 510.685 563.96C510.232 568.071 512.152 570.493 511.849 573.755C508.113 568.683 499.778 564.538 494.93 559.191C490.098 553.862 484.468 548.388 479.94 542.687C478.198 540.493 476.83 537.728 475.191 535.549C474.519 534.656 473.481 534.56 472.109 532.993L472.497 531.879Z"/><path fill="#3A78D1" transform="matrix(1.38184 0 0 1.38184 0.00012207 0)" d="M510.685 563.96C513.398 573.051 515.062 579.097 515.87 588.692C512.827 587.217 511.861 576.936 511.849 573.755C512.152 570.493 510.232 568.071 510.685 563.96Z"/><path fill="#D3FEFE" transform="matrix(1.38184 0 0 1.38184 0.00012207 0)" d="M518.072 506.998C521.413 506.653 530.408 507.009 534.393 507.03C536.52 508.308 539.823 510.494 540.374 513.068C538.253 513.646 538.707 512.328 535.791 512.52C535.877 514.143 538.776 518.291 539.889 520.117C538.292 521.934 534.841 525.214 534.506 527.111L535.299 527.659C538.422 527.404 541.422 523.095 544.6 521.017L545.076 521.488C544.21 526.605 542.798 526.56 538.225 527.967C533.567 531.04 527.516 534.44 522.017 535.713C515.749 537.163 512.67 533.326 508.164 530.437C506.616 531.547 508.059 532.745 506.542 533.947L505.676 532.866C505.431 531.208 505.78 529.368 506.46 527.96C507.946 524.882 505.945 522.919 506.722 520.439C508.33 515.314 513.586 509.754 518.072 506.998Z"/><defs><linearGradient id="gradient_13" gradientUnits="userSpaceOnUse" x1="508.99133" y1="520.52081" x2="531.00482" y2="520.47821"><stop offset="0" stop-color="#EAFFFF"/><stop offset="1" stop-color="white"/></linearGradient></defs><path fill="url(#gradient_13)" transform="matrix(1.38184 0 0 1.38184 0.00012207 0)" d="M520.584 508.379C527.477 510.273 530.217 513.279 532.696 519.722C531.248 524.39 529.474 526.885 526.688 530.794C523.861 531.426 521.758 532.002 518.993 532.844C518.846 532.807 518.7 532.77 518.554 532.732C512.5 528.683 512.482 531.418 507.678 524.814C509.352 518.057 514.917 512.099 520.584 508.379Z"/><path fill="#5B5DFA" transform="matrix(1.38184 0 0 1.38184 0.00012207 0)" d="M392.532 489.836C396.71 489.796 403.549 485.595 408.56 484.424C408.696 488.408 409.525 493.968 407.405 497.159C405.149 498.488 402.352 498.727 401.09 501.225C405.094 499.647 410.886 496.508 414.873 494.506C415.272 501.215 423.427 510.017 425.693 516.568C425.496 516.832 425.299 517.095 425.101 517.359C425.065 517.39 425.029 517.421 424.993 517.453C431.487 517.441 439.767 515.094 445.787 516.075L445.012 516.258C440.781 517.229 420.767 518.748 419.349 519.411C420.327 520.307 419.886 519.809 420.667 520.907C420.056 523.197 419.792 522.683 420.652 524.196C423.188 525.292 426.083 524.714 429.364 525.479L429.708 525.563C431.147 526.222 432.089 526.396 432.974 527.527C430.029 533.094 423.113 545.478 421.37 550.871C422.687 551.861 425.024 553.247 425.329 554.757C419.918 551.64 412.723 547.291 407.178 544.791C408.285 546.739 412.677 548.903 414.836 550.097C413.211 556.405 413.595 560.027 407.722 559.85C407.486 559.945 407.251 560.04 407.016 560.135L405.393 559.378C403.311 558.842 401.15 557.386 399.186 556.416C371.889 542.927 341.695 534.925 311.565 530.987C300.536 529.545 289.286 530.556 278.369 527.619C272.125 525.939 269.614 518.499 276.513 515.488C284.601 512.561 294.388 512.959 302.992 512.13C310.554 511.339 318.091 510.322 325.591 509.081C349.666 505.168 370.019 498.488 392.532 489.836Z"/><defs><linearGradient id="gradient_14" gradientUnits="userSpaceOnUse" x1="344.98969" y1="521.49231" x2="431.5983" y2="523.30566"><stop offset="0" stop-color="#2E257C"/><stop offset="1" stop-color="#4453C5"/></linearGradient></defs><path fill="url(#gradient_14)" transform="matrix(1.38184 0 0 1.38184 0.00012207 0)" d="M414.873 494.506C415.272 501.215 423.427 510.017 425.693 516.568C425.496 516.832 425.299 517.095 425.101 517.359C425.065 517.39 425.029 517.421 424.993 517.453C431.487 517.441 439.767 515.094 445.787 516.075L445.012 516.258C440.781 517.229 420.767 518.748 419.349 519.411C420.327 520.307 419.886 519.809 420.667 520.907C420.056 523.197 419.792 522.683 420.652 524.196C423.188 525.292 426.083 524.714 429.364 525.479L429.708 525.563C431.147 526.222 432.089 526.396 432.974 527.527C430.029 533.094 423.113 545.478 421.37 550.871C422.687 551.861 425.024 553.247 425.329 554.757C419.918 551.64 412.723 547.291 407.178 544.791C402.077 540.4 387.375 535.854 381.215 532.681L380.931 532.178C378.018 530.594 344.203 520.953 339.766 520.288L344.924 519.747C359.93 516.739 369.551 513.593 383.902 508.841C389.233 506.226 395.446 503.915 401.09 501.225C405.094 499.647 410.886 496.508 414.873 494.506Z"/><path fill="#43AEFE" transform="matrix(1.38184 0 0 1.38184 0.00012207 0)" d="M424.993 517.453C431.487 517.441 439.767 515.094 445.787 516.075L445.012 516.258C440.781 517.229 420.767 518.748 419.349 519.411C420.327 520.307 419.886 519.809 420.667 520.907C420.056 523.197 419.792 522.683 420.652 524.196C423.188 525.292 426.083 524.714 429.364 525.479C424.524 525.915 413.039 524.833 407.862 524.428C395.532 523.384 383.193 522.46 370.845 521.656C386.16 519.305 408.391 519.317 424.993 517.453Z"/><path fill="#132041" transform="matrix(1.38184 0 0 1.38184 0.00012207 0)" d="M383.902 508.841C381.612 512.114 349.864 520.761 344.924 519.747C359.93 516.739 369.551 513.593 383.902 508.841Z"/><path fill="#132041" transform="matrix(1.38184 0 0 1.38184 0.00012207 0)" d="M337.539 520.518L339.766 520.288C344.203 520.953 378.018 530.594 380.931 532.178L381.215 532.681C366.398 527.901 351.25 524.217 335.893 521.659L337.539 520.518Z"/><path fill="#1B2E67" transform="matrix(1.38184 0 0 1.38184 0.00012207 0)" d="M335.893 521.659C334.716 521.566 334.766 521.613 333.717 521.098C334.875 520.375 336.121 520.543 337.539 520.518L335.893 521.659Z"/><defs><linearGradient id="gradient_15" gradientUnits="userSpaceOnUse" x1="770.00128" y1="522.30304" x2="682.60974" y2="521.73108"><stop offset="0" stop-color="#308472"/><stop offset="1" stop-color="#37D2B0"/></linearGradient></defs><path fill="url(#gradient_15)" transform="matrix(1.38184 0 0 1.38184 0.00012207 0)" d="M680.425 500.913C699.422 505.091 711.473 508.916 731.475 511.298C738.218 512.054 744.985 512.563 751.765 512.826C759.22 513.105 773.371 511 770.911 523.582C769.68 529.881 756.593 529.113 751.904 529.622C725.451 529.925 701.746 536.052 676.327 542.998C678.174 540.945 679.18 540.916 681.84 540.023C682.432 534.613 683.096 531.433 681.4 526.104C689.803 524.042 698.298 522.582 706.718 520.355C697.945 519.398 687.843 517.094 679.411 514.444C681.866 514.541 681.723 514.937 683.439 513.878C684.978 511.429 685.689 507.16 686.575 504.176C684.533 503.073 682.483 501.986 680.425 500.913Z"/><path fill="#43AEFE" transform="matrix(1.38184 0 0 1.38184 0.00012207 0)" d="M416.959 476.859C422.75 473.539 428.872 469.309 434.482 465.585C441.136 470.87 437.107 475.546 442.707 475.013C437.41 480.492 421.678 490.125 414.873 494.506C410.886 496.508 405.094 499.647 401.09 501.225C402.352 498.727 405.149 498.488 407.405 497.159C409.525 493.968 408.696 488.408 408.56 484.424C403.549 485.595 396.71 489.796 392.532 489.836C395.841 488.106 399.192 486.457 402.581 484.891C406.912 483.023 413.122 479.515 416.959 476.859Z"/><defs><linearGradient id="gradient_16" gradientUnits="userSpaceOnUse" x1="158.30276" y1="503.29678" x2="325.88574" y2="510.2204"><stop offset="0" stop-color="#9326F9"/><stop offset="1" stop-color="#5A61FF"/></linearGradient></defs><path fill="url(#gradient_16)" transform="matrix(1.38184 0 0 1.38184 0.00012207 0)" d="M187.248 749.788C177.478 737.485 170.286 723.339 166.101 708.196C157.944 678.825 160.047 642.692 160.05 612.139L160.059 505.227L160.047 422.212C160.051 401.645 159.337 381.772 161.824 361.3C163.904 344.048 169.35 327.373 177.854 312.22C197.066 278.294 225.633 264.013 257.965 245.094L313.931 212.098L398.659 162.766C418.092 151.35 435.74 139.895 456.103 129.659C466.679 124.239 477.771 119.893 489.214 116.687C534.132 104.279 563.872 117.283 602.06 139.154C619.77 149.297 637.861 160.379 655.499 170.397L654.409 171.917C639.804 165.085 624.642 154.706 610.751 146.462C605.443 143.311 598.809 138.833 593.364 136.244C591.651 135 588.165 133.18 586.206 132.082C588.042 139.572 590.26 137.488 595.021 141.997L595.079 143.839C591.985 146.907 593.427 149.185 591.839 153.082L587.612 150.783C565.807 138.404 548.832 130.071 523.048 129.524C486.346 128.746 458.845 148.035 428.691 165.771L367.562 201.211C360.243 205.397 351.208 211.126 344.006 214.908C335.55 220.467 324.784 226.464 315.973 231.637L267.092 260.326C247.659 271.717 220.655 287.213 205.479 303.893C193.281 317.506 184.909 334.109 181.215 352.01C176.71 373.657 177.979 410.239 178.022 433.076L178.007 536.87L177.958 624.328C177.836 659.469 174.294 697.365 194.378 728.376C205.255 745.171 218.408 757.807 235.226 768.654C256.392 782.304 278.854 793.804 300.43 806.69C293.351 810.016 291.495 812.715 292.885 820.905C295.794 822.712 298.897 824.43 301.917 826.062C316.69 834.043 330.913 842.949 345.431 851.345C344.776 852.973 345.299 852.311 343.664 853.275C341.321 852.262 335.263 848.501 332.816 847.032C326.251 843.023 319.633 839.103 312.962 835.273C293.307 824.134 273.788 812.759 254.407 801.149C228.172 785.622 206.521 774.4 187.248 749.788Z"/><path fill="#43AEFE" transform="matrix(1.38184 0 0 1.38184 0.00012207 0)" d="M342.398 198.091C362.175 185.904 383.159 176.05 402.142 162.516C406.872 159.386 412.557 157.166 417.305 154.161C475.03 117.635 520.639 96.365 586.206 132.082C588.042 139.572 590.26 137.488 595.021 141.997L595.079 143.839C591.985 146.907 593.427 149.185 591.839 153.082L587.612 150.783C565.807 138.404 548.832 130.071 523.048 129.524C486.346 128.746 458.845 148.035 428.691 165.771L367.562 201.211C360.243 205.397 351.208 211.126 344.006 214.908C342.454 215.053 340.27 215.819 338.704 216.3C337.518 215.346 337.47 213.096 337.139 211.341C336.167 206.185 339.473 202.083 342.398 198.091Z"/><path fill="#45D1FB" transform="matrix(1.38184 0 0 1.38184 0.00012207 0)" d="M587.612 150.783L590.353 150.483C592.9 148.381 590.217 147.927 590.532 144.635C592.145 143.501 592.665 143.913 595.079 143.839C591.985 146.907 593.427 149.185 591.839 153.082L587.612 150.783Z"/><path fill="#132041" transform="matrix(1.38184 0 0 1.38184 0.00012207 0)" d="M187.248 749.788C177.478 737.485 170.286 723.339 166.101 708.196C157.944 678.825 160.047 642.692 160.05 612.139L160.059 505.227L160.047 422.212C160.051 401.645 159.337 381.772 161.824 361.3C163.904 344.048 169.35 327.373 177.854 312.22C197.066 278.294 225.633 264.013 257.965 245.094L313.931 212.098L398.659 162.766C418.092 151.35 435.74 139.895 456.103 129.659C466.679 124.239 477.771 119.893 489.214 116.687C534.132 104.279 563.872 117.283 602.06 139.154C619.77 149.297 637.861 160.379 655.499 170.397L654.409 171.917C639.804 165.085 624.642 154.706 610.751 146.462C605.443 143.311 598.809 138.833 593.364 136.244C591.651 135 588.165 133.18 586.206 132.082C520.639 96.365 475.03 117.635 417.305 154.161C412.557 157.166 406.872 159.386 402.142 162.516C383.159 176.05 362.175 185.904 342.398 198.091C334.848 201.816 324.925 207.88 317.562 212.205C301.95 221.355 286.418 230.638 270.965 240.053C250.787 252.168 217.737 269.253 201.625 284.623C187.418 298.025 176.792 314.769 170.714 333.329C166.513 346.069 163.999 359.305 163.238 372.699C161.97 391.963 162.912 413.492 162.921 433.081L162.918 544.218L162.904 624.668C162.787 643.107 161.82 664.663 163.78 683.011C165.485 699.707 170.218 715.953 177.747 730.952C181.005 737.43 184.826 743.609 189.166 749.418L187.248 749.788Z"/><path fill="#132041" transform="matrix(1.38184 0 0 1.38184 0.00012207 0)" d="M189.166 749.418C210.618 775.115 231.992 785.297 260.416 801.983C270.907 808.142 282.225 815.391 292.885 820.905C295.794 822.712 298.897 824.43 301.917 826.062C316.69 834.043 330.913 842.949 345.431 851.345C344.776 852.973 345.299 852.311 343.664 853.275C341.321 852.262 335.263 848.501 332.816 847.032C326.251 843.023 319.633 839.103 312.962 835.273C293.307 824.134 273.788 812.759 254.407 801.149C228.172 785.622 206.521 774.4 187.248 749.788L189.166 749.418Z"/><defs><linearGradient id="gradient_17" gradientUnits="userSpaceOnUse" x1="882.81482" y1="495.11569" x2="599.8689" y2="504.21143"><stop offset="0" stop-color="#2BC6A6"/><stop offset="1" stop-color="#18D9F5"/></linearGradient></defs><path fill="url(#gradient_17)" transform="matrix(1.38184 0 0 1.38184 0.00012207 0)" d="M586.206 132.082C588.165 133.18 591.651 135 593.364 136.244C598.809 138.833 605.443 143.311 610.751 146.462C624.642 154.706 639.804 165.085 654.409 171.917L655.499 170.397C669.851 179.073 684.732 187.303 699.24 195.813C712.84 203.79 726.49 212.523 740.152 220.271C759.187 231.145 778.104 242.223 796.9 253.504C804.492 258.027 822.537 268.382 828.898 273.902C853.903 289.544 873.786 324.287 879.628 352.723C884.688 377.357 883.455 410.787 883.472 436.576L883.508 545.475L883.514 626.681C883.501 669.907 884.954 703.981 860.75 742.54C853.461 754.245 844.202 764.601 833.381 773.149C815.398 787.287 794.073 798.971 774.177 810.409L709.642 847.481C684.102 861.991 658.741 876.823 633.544 891.918C630.923 893.489 628.141 895.177 625.45 896.598L624.41 895.918C624.277 893.834 624.429 894.326 625.55 892.163C634.731 886.571 643.999 881.123 653.351 875.821C655.734 870.805 654.825 868.724 654.326 863.135C646.888 864.606 643.277 869.568 635.474 868.638C646.042 861.99 659.124 854.875 670.028 848.494L757.95 797.958C774.885 788.372 806.214 771.517 820.74 760.014C831.496 751.497 840.596 741.077 847.587 729.272C856.306 714.412 861.968 697.96 864.243 680.882C866.194 665.511 865.556 647.15 865.541 631.372L865.5 559.793L865.497 448.383C865.493 415.017 867.488 380.509 860.187 347.832C850.186 303.071 812.681 282.893 776.245 261.784L735.312 237.781L591.839 153.082C593.427 149.185 591.985 146.907 595.079 143.839L595.021 141.997C590.26 137.488 588.042 139.572 586.206 132.082Z"/><defs><linearGradient id="gradient_18" gradientUnits="userSpaceOnUse" x1="883.90277" y1="594.38049" x2="630.83905" y2="588.71143"><stop offset="0" stop-color="#082524"/><stop offset="1" stop-color="#004E70"/></linearGradient></defs><path fill="url(#gradient_18)" transform="matrix(1.38184 0 0 1.38184 0.00012207 0)" d="M828.898 273.902C853.903 289.544 873.786 324.287 879.628 352.723C884.688 377.357 883.455 410.787 883.472 436.576L883.508 545.475L883.514 626.681C883.501 669.907 884.954 703.981 860.75 742.54C853.461 754.245 844.202 764.601 833.381 773.149C815.398 787.287 794.073 798.971 774.177 810.409L709.642 847.481C684.102 861.991 658.741 876.823 633.544 891.918C630.923 893.489 628.141 895.177 625.45 896.598L624.41 895.918C624.277 893.834 624.429 894.326 625.55 892.163C634.731 886.571 643.999 881.123 653.351 875.821C662.008 871.586 675.039 863.565 683.697 858.554L738.98 826.537C754.859 817.319 770.783 808.182 786.754 799.125C802.399 790.176 821.21 779.249 835.169 767.997C859.7 748.225 876.982 709.282 879.687 678.027C881.029 662.524 880.63 641.948 880.624 625.888L880.608 545.677L880.539 436.878C880.466 396.918 883.782 355.414 864.961 318.754C858.746 306.647 850.92 297.752 842.322 287.464C841.79 284.548 831.838 277.121 828.967 274.78L828.898 273.902Z"/><path fill="#2E6E78" transform="matrix(1.38184 0 0 1.38184 0.00012207 0)" d="M731.999 218.124L732.214 217.339C735.8 217.879 736.335 220.167 740.152 220.271C759.187 231.145 778.104 242.223 796.9 253.504C804.492 258.027 822.537 268.382 828.898 273.902L828.967 274.78C831.838 277.121 841.79 284.548 842.322 287.464C830.817 276.028 806.845 262.377 792.969 254.123C772.627 242.023 752.222 230.55 731.999 218.124Z"/><path fill="#2E6E78" transform="matrix(1.38184 0 0 1.38184 0.00012207 0)" d="M655.499 170.397C669.851 179.073 684.732 187.303 699.24 195.813C712.84 203.79 726.49 212.523 740.152 220.271C736.335 220.167 735.8 217.879 732.214 217.339L731.999 218.124C721.838 212.591 711.199 205.988 701.094 200.192C685.356 191.164 669.548 181.901 654.409 171.917L655.499 170.397Z"/><path fill="#45D1FB" transform="matrix(1.38184 0 0 1.38184 0.00012207 0)" d="M586.206 132.082C588.165 133.18 591.651 135 593.364 136.244C591.444 136.246 591.323 136.085 589.78 135.02L589.049 134.526C588.879 134.406 588.71 134.287 588.54 134.168L588.378 135.235C590.517 138.058 594.431 137.178 595.021 141.997C590.26 137.488 588.042 139.572 586.206 132.082Z"/><path fill="#45D1FB" transform="matrix(1.38184 0 0 1.38184 0.00012207 0)" d="M345.431 851.345C355.084 855.028 367.914 865.69 376.901 868.861C376.006 868.139 373.883 866.471 373.455 865.495C371.267 860.509 376.987 855.243 380.361 853.194C399.527 865.378 420.195 875.845 439.562 887.772C442.45 889.551 445.478 891.186 448.509 892.708C466.577 904.102 480.653 912.672 502.538 916.439C524.676 920.115 547.409 916.794 567.57 906.937C575.047 903.326 585.262 897.179 592.809 892.917C600.627 888.502 614.101 881.621 620.949 876.746C622.615 876.148 633.336 869.863 635.474 868.638C643.277 869.568 646.888 864.606 654.326 863.135C654.825 868.724 655.734 870.805 653.351 875.821C643.999 881.123 634.731 886.571 625.55 892.163C624.429 894.326 624.277 893.834 624.41 895.918L625.45 896.598L621.986 898.535C573.121 928.087 529.428 952.912 471.444 926.814C464.652 923.989 454.434 918.118 448.029 914.457C436.091 907.678 424.262 900.708 412.548 893.55L343.664 853.275C345.299 852.311 344.776 852.973 345.431 851.345Z"/><path fill="#38486A" transform="matrix(1.38184 0 0 1.38184 0.00012207 0)" d="M472.203 924.275C532.018 949.474 567.279 926.375 617.36 897.273C618.897 897.706 620.435 898.158 621.986 898.535C573.121 928.087 529.428 952.912 471.444 926.814L472.203 924.275Z"/><path fill="#1B2E67" transform="matrix(1.38184 0 0 1.38184 0.00012207 0)" d="M345.431 851.345C355.084 855.028 367.914 865.69 376.901 868.861C389.707 876.379 402.28 884.643 414.734 891.989C433.762 902.977 452.92 913.74 472.203 924.275L471.444 926.814C464.652 923.989 454.434 918.118 448.029 914.457C436.091 907.678 424.262 900.708 412.548 893.55L343.664 853.275C345.299 852.311 344.776 852.973 345.431 851.345Z"/><path fill="#1E5E8B" transform="matrix(1.38184 0 0 1.38184 0.00012207 0)" d="M625.55 892.163C624.429 894.326 624.277 893.834 624.41 895.918L625.45 896.598L621.986 898.535C620.435 898.158 618.897 897.706 617.36 897.273C619.487 895.768 623.229 893.607 625.55 892.163Z"/><path fill="#3A78D1" transform="matrix(1.38184 0 0 1.38184 0.00012207 0)" d="M300.43 806.69C305.178 809.201 310.136 812.47 314.883 815.214L347.077 833.701L369.672 846.721C372.332 848.272 378.278 851.563 380.361 853.194C376.987 855.243 371.267 860.509 373.455 865.495C373.883 866.471 376.006 868.139 376.901 868.861C367.914 865.69 355.084 855.028 345.431 851.345C330.913 842.949 316.69 834.043 301.917 826.062C298.897 824.43 295.794 822.712 292.885 820.905C291.495 812.715 293.351 810.016 300.43 806.69Z"/><path fill="#38486A" transform="matrix(1.38184 0 0 1.38184 0.00012207 0)" d="M614.01 877.13L614.492 877.946C612.009 879.585 609.425 880.298 607.26 881.645C584.021 896.115 560.589 909.984 533.48 915.605C529.883 916.351 528.975 914.315 524.869 916.782C528.681 917.114 532.025 916.281 535.732 915.836C553.62 913.688 568.125 905.853 583.384 897.171C591.216 892.812 599.022 888.406 606.803 883.956C609.584 882.339 618.383 876.53 620.949 876.746C614.101 881.621 600.627 888.502 592.809 892.917C585.262 897.179 575.047 903.326 567.57 906.937C547.409 916.794 524.676 920.115 502.538 916.439C480.653 912.672 466.577 904.102 448.509 892.708C453.984 893.097 474.812 909.328 484.923 910.798C485.954 910.948 485.5 910.763 486.469 911.351C487.19 911.789 487.458 911.929 488.279 912.052L489.313 911.231C485.337 908.785 480.911 908.569 476.454 905.82C468.553 900.947 459.49 896.626 451.479 891.866L451.589 890.944C452.6 891.291 461.714 896.437 463.047 897.193C473.57 903.163 482.739 908.599 494.564 911.859C542.117 924.971 575.64 898.189 614.01 877.13Z"/></svg>